<svg xmlns="http://www.w3.org/2000/svg" id="Group_31" data-name="Group 31" width="165.36" height="55.275" viewBox="0 0 165.36 55.275"><g id="Group_19" data-name="Group 19"><g id="Group_14" data-name="Group 14"><g id="Group_13" data-name="Group 13"><path id="Path_39" data-name="Path 39" d="M152.192,0H13.176c-.507,0-1.007,0-1.513,0-.423,0-.843.011-1.27.018A18.179,18.179,0,0,0,7.624.264,9.286,9.286,0,0,0,5,1.13,8.9,8.9,0,0,0,2.761,2.76,8.685,8.685,0,0,0,1.132,5a9.155,9.155,0,0,0-.864,2.63A18.072,18.072,0,0,0,.021,10.4c-.012.424-.014.85-.021,1.273V43.61c.007.428.008.844.021,1.273A18.041,18.041,0,0,0,.268,47.65a9.13,9.13,0,0,0,.864,2.632,8.613,8.613,0,0,0,1.629,2.23A8.705,8.705,0,0,0,5,54.142a9.252,9.252,0,0,0,2.627.871,18.359,18.359,0,0,0,2.769.245c.427.01.847.015,1.27.015.506,0,1.006,0,1.513,0H152.192c.5,0,1,0,1.5,0,.42,0,.853-.006,1.274-.015a18.13,18.13,0,0,0,2.764-.245,9.371,9.371,0,0,0,2.637-.871,8.722,8.722,0,0,0,2.234-1.629,8.858,8.858,0,0,0,1.633-2.23,9.156,9.156,0,0,0,.855-2.632,18.588,18.588,0,0,0,.256-2.767c.006-.428.006-.844.006-1.273.011-.5.011-1,.011-1.512V13.178c0-.506,0-1.007-.011-1.509,0-.423,0-.848-.006-1.273a18.622,18.622,0,0,0-.256-2.767A9.18,9.18,0,0,0,164.233,5a8.946,8.946,0,0,0-3.868-3.869,9.406,9.406,0,0,0-2.637-.866,17.955,17.955,0,0,0-2.764-.243C154.543.014,154.11.006,153.69,0c-.5,0-1,0-1.5,0Z" fill="#a2a2a2"></path><path id="Path_40" data-name="Path 40" d="M11.337,53.732c-.421,0-.832-.006-1.249-.015A17.439,17.439,0,0,1,7.5,53.491a8.1,8.1,0,0,1-2.288-.757,7.425,7.425,0,0,1-1.93-1.4A7.364,7.364,0,0,1,1.873,49.4a7.948,7.948,0,0,1-.75-2.29,17.118,17.118,0,0,1-.229-2.591c-.01-.292-.021-1.262-.021-1.262V11.334S.885,10.38.894,10.1a17.066,17.066,0,0,1,.228-2.587,7.911,7.911,0,0,1,.752-2.3,7.376,7.376,0,0,1,1.4-1.932A7.694,7.694,0,0,1,5.213,1.87,8.04,8.04,0,0,1,7.5,1.118,17.481,17.481,0,0,1,10.09.892L11.337.875H153.35l1.262.018a17.078,17.078,0,0,1,2.568.224,8.225,8.225,0,0,1,2.309.757,7.729,7.729,0,0,1,3.337,3.344,7.93,7.93,0,0,1,.739,2.279,17.714,17.714,0,0,1,.24,2.608c0,.391,0,.813,0,1.23.011.518.011,1.012.011,1.509V41.765c0,.5,0,.992-.011,1.486,0,.449,0,.861-.006,1.285a17.352,17.352,0,0,1-.236,2.561,7.907,7.907,0,0,1-.746,2.308,7.565,7.565,0,0,1-1.4,1.915,7.445,7.445,0,0,1-1.935,1.412,8.059,8.059,0,0,1-2.3.76,17.219,17.219,0,0,1-2.583.225c-.4.01-.828.015-1.24.015l-1.5,0Z" transform="translate(0.333 0.334)"></path></g></g><g id="Group_18" data-name="Group 18" transform="translate(13.78 12.05)"><g id="Group_16" data-name="Group 16"><g id="Group_15" data-name="Group 15"><path id="Path_41" data-name="Path 41" d="M30.42,22.717a6.837,6.837,0,0,1,3.256-5.738A7,7,0,0,0,28.16,14c-2.32-.243-4.57,1.389-5.753,1.389-1.2,0-3.025-1.365-4.986-1.324a7.343,7.343,0,0,0-6.181,3.768C8.568,22.459,10.562,29.259,13.121,33c1.281,1.831,2.778,3.876,4.737,3.8,1.917-.08,2.632-1.223,4.946-1.223,2.293,0,2.964,1.223,4.962,1.177,2.058-.035,3.352-1.841,4.589-3.69a15.139,15.139,0,0,0,2.1-4.273A6.607,6.607,0,0,1,30.42,22.717Z" transform="translate(-9.972 -6.714)" fill="#fff"></path><path id="Path_42" data-name="Path 42" d="M23.283,13.544A6.735,6.735,0,0,0,24.823,8.72a6.853,6.853,0,0,0-4.433,2.294,6.409,6.409,0,0,0-1.581,4.644A5.666,5.666,0,0,0,23.283,13.544Z" transform="translate(-6.61 -8.72)" fill="#fff"></path></g></g><g id="Group_17" data-name="Group 17" transform="translate(33.794 12.646)"><path id="Path_43" data-name="Path 43" d="M45.309,30.6h-6.54L37.2,35.238H34.427l6.2-17.16H43.5L49.7,35.238H46.879ZM39.446,28.46h5.185l-2.556-7.527H42Z" transform="translate(-34.427 -17.792)" fill="#fff"></path><path id="Path_44" data-name="Path 44" d="M58.417,27.735c0,3.887-2.081,6.386-5.222,6.386a4.239,4.239,0,0,1-3.936-2.189H49.2v6.2H46.631V21.478h2.486v2.081h.047a4.441,4.441,0,0,1,3.984-2.211C56.323,21.348,58.417,23.857,58.417,27.735Zm-2.639,0c0-2.533-1.31-4.2-3.307-4.2-1.962,0-3.282,1.7-3.282,4.2,0,2.521,1.32,4.209,3.282,4.209C54.468,31.944,55.778,30.29,55.778,27.735Z" transform="translate(-29.767 -16.543)" fill="#fff"></path><path id="Path_45" data-name="Path 45" d="M68.382,27.735c0,3.887-2.081,6.386-5.222,6.386a4.239,4.239,0,0,1-3.936-2.189h-.059v6.2H56.6V21.478h2.486v2.081h.047a4.44,4.44,0,0,1,3.984-2.211C66.288,21.348,68.382,23.857,68.382,27.735Zm-2.641,0c0-2.533-1.309-4.2-3.305-4.2-1.962,0-3.282,1.7-3.282,4.2,0,2.521,1.32,4.209,3.282,4.209C64.433,31.944,65.741,30.29,65.741,27.735Z" transform="translate(-25.961 -16.543)" fill="#fff"></path><path id="Path_46" data-name="Path 46" d="M72.436,30.536c.191,1.7,1.843,2.819,4.1,2.819,2.165,0,3.723-1.117,3.723-2.652,0-1.332-.94-2.129-3.163-2.675l-2.225-.536c-3.151-.761-4.614-2.234-4.614-4.627,0-2.96,2.58-4.994,6.245-4.994,3.626,0,6.112,2.034,6.195,4.994H80.107c-.155-1.712-1.57-2.746-3.64-2.746s-3.484,1.046-3.484,2.568c0,1.213.9,1.928,3.116,2.474l1.89.464c3.521.833,4.983,2.247,4.983,4.758,0,3.21-2.556,5.221-6.623,5.221-3.806,0-6.376-1.964-6.542-5.067Z" transform="translate(-20.916 -17.871)" fill="#fff"></path><path id="Path_47" data-name="Path 47" d="M84.561,19.3v2.96h2.38v2.034h-2.38v6.9c0,1.072.477,1.571,1.523,1.571a7.878,7.878,0,0,0,.844-.059v2.022a7.024,7.024,0,0,1-1.426.119c-2.533,0-3.521-.952-3.521-3.377V24.294H80.163V22.26h1.819V19.3Z" transform="translate(-16.962 -17.325)" fill="#fff"></path><path id="Path_48" data-name="Path 48" d="M86.065,27.742c0-3.937,2.319-6.411,5.934-6.411s5.935,2.474,5.935,6.411-2.3,6.409-5.935,6.409S86.065,31.688,86.065,27.742Zm9.252,0c0-2.7-1.237-4.295-3.318-4.295s-3.316,1.606-3.316,4.295c0,2.711,1.235,4.292,3.316,4.292S95.317,30.453,95.317,27.742Z" transform="translate(-14.708 -16.55)" fill="#fff"></path><path id="Path_49" data-name="Path 49" d="M96.186,21.478h2.45v2.129h.058a2.985,2.985,0,0,1,3.01-2.259,3.985,3.985,0,0,1,.88.1v2.4a3.62,3.62,0,0,0-1.154-.155,2.589,2.589,0,0,0-2.677,2.878v7.421H96.186Z" transform="translate(-10.843 -16.543)" fill="#fff"></path><path id="Path_50" data-name="Path 50" d="M112.5,30.321c-.345,2.27-2.556,3.829-5.387,3.829-3.64,0-5.9-2.438-5.9-6.35s2.272-6.47,5.791-6.47c3.462,0,5.638,2.378,5.638,6.171v.88h-8.837v.155a3.258,3.258,0,0,0,3.366,3.543,2.831,2.831,0,0,0,2.89-1.759Zm-8.681-3.734h6.254a3.008,3.008,0,0,0-3.068-3.176A3.168,3.168,0,0,0,103.822,26.588Z" transform="translate(-8.922 -16.55)" fill="#fff"></path></g></g></g><g id="Group_21" data-name="Group 21" transform="translate(49.293 11.659)"><g id="Group_20" data-name="Group 20"><path id="Path_51" data-name="Path 51" d="M38.649,8.731c2.446,0,3.88,1.5,3.88,4.1,0,2.634-1.423,4.148-3.88,4.148H35.671V8.731Zm-1.7,7.079h1.555c1.725,0,2.718-1.074,2.718-2.965,0-1.863-1.01-2.949-2.718-2.949H36.952Z" transform="translate(-35.671 -8.325)" fill="#fff"></path><path id="Path_52" data-name="Path 52" d="M41.681,13.336c0-2.005,1.119-3.228,2.936-3.228s2.932,1.223,2.932,3.228-1.115,3.235-2.932,3.235S41.681,15.354,41.681,13.336Zm4.606,0c0-1.349-.607-2.138-1.669-2.138s-1.668.789-1.668,2.138.6,2.143,1.668,2.143S46.287,14.69,46.287,13.336Z" transform="translate(-33.376 -7.799)" fill="#fff"></path><path id="Path_53" data-name="Path 53" d="M53.484,16.418H52.21l-1.285-4.584h-.1l-1.28,4.584H48.285l-1.716-6.223h1.246l1.114,4.748h.093l1.28-4.748h1.177l1.28,4.748h.1l1.11-4.748h1.228Z" transform="translate(-31.509 -7.766)" fill="#fff"></path><path id="Path_54" data-name="Path 54" d="M53.854,10.228h1.181v.988h.091a1.864,1.864,0,0,1,1.857-1.108,2.024,2.024,0,0,1,2.154,2.315v4.028H57.91v-3.72c0-1-.434-1.5-1.343-1.5a1.428,1.428,0,0,0-1.486,1.577v3.641H53.854Z" transform="translate(-28.727 -7.799)" fill="#fff"></path><path id="Path_55" data-name="Path 55" d="M59.094,8.437h1.227v8.652H59.094Z" transform="translate(-26.726 -8.437)" fill="#fff"></path><path id="Path_56" data-name="Path 56" d="M61.218,13.336c0-2.005,1.119-3.228,2.936-3.228s2.932,1.223,2.932,3.228-1.115,3.235-2.932,3.235S61.218,15.354,61.218,13.336Zm4.606,0c0-1.349-.607-2.138-1.669-2.138s-1.668.789-1.668,2.138.6,2.143,1.668,2.143S65.824,14.69,65.824,13.336Z" transform="translate(-25.915 -7.799)" fill="#fff"></path><path id="Path_57" data-name="Path 57" d="M66.4,14.69c0-1.119.833-1.766,2.315-1.857l1.685-.1V12.2c0-.656-.434-1.028-1.273-1.028-.687,0-1.161.252-1.3.691H66.641c.126-1.068,1.13-1.754,2.543-1.754,1.559,0,2.439.777,2.439,2.091v4.252H70.442v-.875h-.1a2.09,2.09,0,0,1-1.868.977A1.88,1.88,0,0,1,66.4,14.69Zm4-.531v-.521l-1.519.1c-.857.058-1.246.35-1.246.9s.486.886,1.154.886A1.466,1.466,0,0,0,70.4,14.16Z" transform="translate(-23.936 -7.799)" fill="#fff"></path><path id="Path_58" data-name="Path 58" d="M71.348,13.974c0-1.966,1.012-3.211,2.583-3.211a2.051,2.051,0,0,1,1.908,1.092h.093V8.437h1.227v8.652H75.983v-.984h-.1a2.157,2.157,0,0,1-1.954,1.086C72.348,17.191,71.348,15.946,71.348,13.974Zm1.269,0c0,1.32.622,2.114,1.662,2.114s1.675-.806,1.675-2.109-.647-2.114-1.675-2.114S72.617,12.666,72.617,13.974Z" transform="translate(-22.047 -8.437)" fill="#fff"></path><path id="Path_59" data-name="Path 59" d="M79.23,13.336c0-2.005,1.121-3.228,2.936-3.228S85.1,11.331,85.1,13.336s-1.115,3.235-2.932,3.235S79.23,15.354,79.23,13.336Zm4.606,0c0-1.349-.605-2.138-1.669-2.138s-1.668.789-1.668,2.138.6,2.143,1.668,2.143S83.836,14.69,83.836,13.336Z" transform="translate(-19.037 -7.799)" fill="#fff"></path><path id="Path_60" data-name="Path 60" d="M84.669,10.228h1.183v.988h.091A1.864,1.864,0,0,1,87.8,10.108a2.024,2.024,0,0,1,2.154,2.315v4.028H88.726v-3.72c0-1-.434-1.5-1.343-1.5A1.428,1.428,0,0,0,85.9,12.81v3.641H84.669Z" transform="translate(-16.96 -7.799)" fill="#fff"></path><path id="Path_61" data-name="Path 61" d="M94.128,9.074v1.577h1.349v1.035H94.128v3.2c0,.652.268.938.88.938a4.158,4.158,0,0,0,.468-.029v1.023a3.955,3.955,0,0,1-.669.064c-1.365,0-1.908-.481-1.908-1.68V11.686h-.988V10.651H92.9V9.074Z" transform="translate(-14.195 -8.194)" fill="#fff"></path><path id="Path_62" data-name="Path 62" d="M95.705,8.437h1.216v3.428h.1a1.916,1.916,0,0,1,1.9-1.114,2.05,2.05,0,0,1,2.143,2.32v4.017H99.83V13.374c0-.994-.463-1.5-1.331-1.5a1.455,1.455,0,0,0-1.567,1.578v3.634H95.705Z" transform="translate(-12.746 -8.437)" fill="#fff"></path><path id="Path_63" data-name="Path 63" d="M106.3,14.77a2.526,2.526,0,0,1-2.7,1.8c-1.783,0-2.874-1.223-2.874-3.213s1.115-3.25,2.869-3.25c1.731,0,2.776,1.183,2.776,3.137v.428h-4.394v.069a1.646,1.646,0,0,0,1.657,1.783,1.493,1.493,0,0,0,1.481-.755Zm-4.32-2.005h3.144a1.5,1.5,0,0,0-1.532-1.613A1.592,1.592,0,0,0,101.981,12.765Z" transform="translate(-10.827 -7.799)" fill="#fff"></path></g></g></svg>