<svg xmlns="http://www.w3.org/2000/svg" xmlns:xlink="http://www.w3.org/1999/xlink" width="165.36" height="55.275" viewBox="0 0 165.36 55.275"><defs><linearGradient id="linear-gradient" x1="0.915" y1="7.885" x2="-0.383" y2="7.215" gradientUnits="objectBoundingBox"><stop offset="0" stop-color="#00a0ff"></stop><stop offset="0.007" stop-color="#00a1ff"></stop><stop offset="0.26" stop-color="#00beff"></stop><stop offset="0.512" stop-color="#00d2ff"></stop><stop offset="0.76" stop-color="#00dfff"></stop><stop offset="1" stop-color="#00e3ff"></stop></linearGradient><linearGradient id="linear-gradient-2" x1="1.076" y1="20.823" x2="-1.305" y2="20.823" gradientUnits="objectBoundingBox"><stop offset="0" stop-color="#ffe000"></stop><stop offset="0.409" stop-color="#ffbd00"></stop><stop offset="0.775" stop-color="orange"></stop><stop offset="1" stop-color="#ff9c00"></stop></linearGradient><linearGradient id="linear-gradient-3" x1="0.862" y1="13.339" x2="-0.501" y2="11.57" gradientUnits="objectBoundingBox"><stop offset="0" stop-color="#ff3a44"></stop><stop offset="1" stop-color="#c31162"></stop></linearGradient><linearGradient id="linear-gradient-4" x1="-0.188" y1="16.059" x2="0.421" y2="15.269" gradientUnits="objectBoundingBox"><stop offset="0" stop-color="#32a071"></stop><stop offset="0.068" stop-color="#2da771"></stop><stop offset="0.476" stop-color="#15cf74"></stop><stop offset="0.801" stop-color="#06e775"></stop><stop offset="1" stop-color="#00f076"></stop></linearGradient></defs><g id="Group_129" data-name="Group 129" transform="translate(-1206 -7769.517)"><g id="Group_14" data-name="Group 14" transform="translate(1206 7769.517)"><g id="Group_13" data-name="Group 13"><path id="Path_39" data-name="Path 39" d="M152.192,0H13.176c-.507,0-1.007,0-1.513,0-.423,0-.843.011-1.27.018A18.179,18.179,0,0,0,7.624.264,9.286,9.286,0,0,0,5,1.13,8.9,8.9,0,0,0,2.761,2.76,8.685,8.685,0,0,0,1.132,5a9.155,9.155,0,0,0-.864,2.63A18.072,18.072,0,0,0,.021,10.4c-.012.424-.014.85-.021,1.273V43.61c.007.428.008.844.021,1.273A18.041,18.041,0,0,0,.268,47.65a9.13,9.13,0,0,0,.864,2.632,8.613,8.613,0,0,0,1.629,2.23A8.705,8.705,0,0,0,5,54.142a9.252,9.252,0,0,0,2.627.871,18.359,18.359,0,0,0,2.769.245c.427.01.847.015,1.27.015.506,0,1.006,0,1.513,0H152.192c.5,0,1,0,1.5,0,.42,0,.853-.006,1.274-.015a18.13,18.13,0,0,0,2.764-.245,9.371,9.371,0,0,0,2.637-.871,8.722,8.722,0,0,0,2.234-1.629,8.858,8.858,0,0,0,1.633-2.23,9.156,9.156,0,0,0,.855-2.632,18.588,18.588,0,0,0,.256-2.767c.006-.428.006-.844.006-1.273.011-.5.011-1,.011-1.512V13.178c0-.506,0-1.007-.011-1.509,0-.423,0-.848-.006-1.273a18.622,18.622,0,0,0-.256-2.767A9.18,9.18,0,0,0,164.233,5a8.946,8.946,0,0,0-3.868-3.869,9.406,9.406,0,0,0-2.637-.866,17.955,17.955,0,0,0-2.764-.243C154.543.014,154.11.006,153.69,0c-.5,0-1,0-1.5,0Z" fill="#a2a2a2"></path><path id="Path_40" data-name="Path 40" d="M11.337,53.732c-.421,0-.832-.006-1.249-.015A17.439,17.439,0,0,1,7.5,53.491a8.1,8.1,0,0,1-2.288-.757,7.425,7.425,0,0,1-1.93-1.4A7.364,7.364,0,0,1,1.873,49.4a7.948,7.948,0,0,1-.75-2.29,17.118,17.118,0,0,1-.229-2.591c-.01-.292-.021-1.262-.021-1.262V11.334S.885,10.38.894,10.1a17.066,17.066,0,0,1,.228-2.587,7.911,7.911,0,0,1,.752-2.3,7.376,7.376,0,0,1,1.4-1.932A7.694,7.694,0,0,1,5.213,1.87,8.04,8.04,0,0,1,7.5,1.118,17.481,17.481,0,0,1,10.09.892L11.337.875H153.35l1.262.018a17.078,17.078,0,0,1,2.568.224,8.225,8.225,0,0,1,2.309.757,7.729,7.729,0,0,1,3.337,3.344,7.93,7.93,0,0,1,.739,2.279,17.714,17.714,0,0,1,.24,2.608c0,.391,0,.813,0,1.23.011.518.011,1.012.011,1.509V41.765c0,.5,0,.992-.011,1.486,0,.449,0,.861-.006,1.285a17.352,17.352,0,0,1-.236,2.561,7.907,7.907,0,0,1-.746,2.308,7.565,7.565,0,0,1-1.4,1.915,7.445,7.445,0,0,1-1.935,1.412,8.059,8.059,0,0,1-2.3.76,17.219,17.219,0,0,1-2.583.225c-.4.01-.828.015-1.24.015l-1.5,0Z" transform="translate(0.333 0.334)"></path></g></g><g id="Group_27" data-name="Group 27" transform="translate(1219.259 7780.485)"><path id="Path_73" data-name="Path 73" d="M70.382,1.635a2.6,2.6,0,0,0-.6,1.821V32.122a2.6,2.6,0,0,0,.6,1.821l.1.093L86.535,17.978V17.6L70.478,1.542Z" transform="translate(-69.783 -1.12)" fill="url(#linear-gradient)"></path><path id="Path_74" data-name="Path 74" d="M88.061,20.888l-5.353-5.356v-.378L88.062,9.8l.121.069,6.342,3.6c1.811,1.029,1.811,2.713,0,3.742l-6.342,3.6Z" transform="translate(-65.956 1.326)" fill="url(#linear-gradient-2)"></path><path id="Path_75" data-name="Path 75" d="M91.873,19.552,86.4,14.077,70.245,30.231a2.109,2.109,0,0,0,2.695.079L91.873,19.552" transform="translate(-69.646 2.592)" fill="url(#linear-gradient-3)"></path><path id="Path_76" data-name="Path 76" d="M91.873,12.411,72.94,1.653a2.109,2.109,0,0,0-2.695.079L86.4,17.885Z" transform="translate(-69.646 -1.216)" fill="url(#linear-gradient-4)"></path><g id="Group_26" data-name="Group 26" transform="translate(0 22.023)"><path id="Path_77" data-name="Path 77" d="M91.753,18.208,72.94,28.9a2.158,2.158,0,0,1-2.6.014h0l-.1.1h0l.1.093h0a2.158,2.158,0,0,0,2.6-.014L91.873,18.329Z" transform="translate(-69.646 -18.208)" opacity="0.2" style="isolation: isolate"></path><path id="Path_78" data-name="Path 78" d="M70.382,26.81a2.6,2.6,0,0,1-.6-1.82v.189a2.6,2.6,0,0,0,.6,1.821l.1-.1Z" transform="translate(-69.783 -16.2)" opacity="0.12" style="isolation: isolate"></path></g><path id="Path_79" data-name="Path 79" d="M93.3,15.759l-6.462,3.672.121.121,6.342-3.6a2.275,2.275,0,0,0,1.358-1.87h0A2.412,2.412,0,0,1,93.3,15.759Z" transform="translate(-64.732 2.592)" opacity="0.12" style="isolation: isolate"></path><path id="Path_80" data-name="Path 80" d="M73.076,1.842,98.352,16.2a2.412,2.412,0,0,1,1.358,1.682h0a2.272,2.272,0,0,0-1.358-1.872L73.076,1.653c-1.812-1.029-3.293-.174-3.293,1.9v.189C69.783,1.668,71.264.813,73.076,1.842Z" transform="translate(-69.783 -1.216)" fill="#fff" opacity="0.25" style="isolation: isolate"></path></g><g id="Group_25" data-name="Group 25" transform="translate(1255.293 7781.823)"><path id="Path_65" data-name="Path 65" d="M109.026,5.319a3.509,3.509,0,0,1-.967,2.6A3.767,3.767,0,0,1,105.2,9.066,3.916,3.916,0,0,1,102.34,7.9,3.916,3.916,0,0,1,101.162,5,3.909,3.909,0,0,1,102.34,2.11,3.912,3.912,0,0,1,105.2.942a4.026,4.026,0,0,1,1.6.325,3.2,3.2,0,0,1,1.216.87l-.683.684A2.626,2.626,0,0,0,105.2,1.9,3.007,3.007,0,0,0,102.182,5a3.058,3.058,0,0,0,5.192,2.238,2.449,2.449,0,0,0,.652-1.576H105.2V4.733h3.769A3.32,3.32,0,0,1,109.026,5.319Z" transform="translate(-101.162 -0.942)" fill="#fff" stroke="#fff" stroke-miterlimit="10" stroke-width="0.2"></path><path id="Path_66" data-name="Path 66" d="M112.875,2.031h-3.542V4.5h3.194v.933h-3.194V7.9h3.542v.955h-4.54V1.076h4.54Z" transform="translate(-99.038 -0.902)" fill="#fff" stroke="#fff" stroke-miterlimit="10" stroke-width="0.2"></path><path id="Path_67" data-name="Path 67" d="M115.814,8.853h-1V2.031h-2.171V1.076h5.344v.955h-2.172Z" transform="translate(-97.762 -0.902)" fill="#fff" stroke="#fff" stroke-miterlimit="10" stroke-width="0.2"></path><path id="Path_68" data-name="Path 68" d="M119.748,8.853V1.076h1V8.853Z" transform="translate(-95.658 -0.902)" fill="#fff" stroke="#fff" stroke-miterlimit="10" stroke-width="0.2"></path><path id="Path_69" data-name="Path 69" d="M124.663,8.853h-1V2.031h-2.172V1.076h5.344v.955h-2.172Z" transform="translate(-95.142 -0.902)" fill="#fff" stroke="#fff" stroke-miterlimit="10" stroke-width="0.2"></path><path id="Path_70" data-name="Path 70" d="M134.983,7.888a4.038,4.038,0,0,1-5.7,0A3.977,3.977,0,0,1,128.136,5a3.972,3.972,0,0,1,1.146-2.883,4.026,4.026,0,0,1,5.7,0A3.98,3.98,0,0,1,136.129,5,3.982,3.982,0,0,1,134.983,7.888Zm-4.964-.652a2.988,2.988,0,0,0,4.225,0A3.044,3.044,0,0,0,135.109,5a3.046,3.046,0,0,0-.865-2.232,2.991,2.991,0,0,0-4.225,0A3.05,3.05,0,0,0,129.156,5,3.048,3.048,0,0,0,130.019,7.236Z" transform="translate(-93.174 -0.942)" fill="#fff" stroke="#fff" stroke-miterlimit="10" stroke-width="0.2"></path><path id="Path_71" data-name="Path 71" d="M135.385,8.853V1.076H136.6l3.779,6.05h.043l-.043-1.5V1.076h1V8.853h-1.042L136.384,2.51h-.043l.043,1.5V8.853Z" transform="translate(-91.028 -0.902)" fill="#fff" stroke="#fff" stroke-miterlimit="10" stroke-width="0.2"></path></g><path id="Path_72" data-name="Path 72" d="M135.969,17.221a5.512,5.512,0,1,0,5.533,5.512A5.433,5.433,0,0,0,135.969,17.221Zm0,8.854a3.19,3.19,0,0,1-3.112-3.341,3.119,3.119,0,1,1,6.223,0A3.189,3.189,0,0,1,135.969,26.075ZM123.9,17.221a5.512,5.512,0,1,0,5.533,5.512A5.434,5.434,0,0,0,123.9,17.221Zm0,8.854a3.19,3.19,0,0,1-3.112-3.341,3.119,3.119,0,1,1,6.223,0A3.19,3.19,0,0,1,123.9,26.075Zm-14.36-7.162v2.338h5.6a4.888,4.888,0,0,1-1.273,2.945,5.732,5.732,0,0,1-4.323,1.712,6.223,6.223,0,0,1,0-12.445,5.962,5.962,0,0,1,4.218,1.671l1.65-1.65a8.16,8.16,0,0,0-5.868-2.36,8.682,8.682,0,0,0-8.687,8.562,8.681,8.681,0,0,0,8.687,8.561,7.823,7.823,0,0,0,5.971-2.4,7.722,7.722,0,0,0,2.026-5.471,7.565,7.565,0,0,0-.126-1.461Zm58.725,1.816a5.123,5.123,0,0,0-4.719-3.507,5.239,5.239,0,0,0-5.2,5.512,5.394,5.394,0,0,0,5.471,5.512A5.482,5.482,0,0,0,168.41,25.8l-1.879-1.252a3.15,3.15,0,0,1-2.714,1.524,2.8,2.8,0,0,1-2.674-1.671l7.371-3.048Zm-7.518,1.838a3.024,3.024,0,0,1,2.881-3.216,2.135,2.135,0,0,1,2.047,1.169Zm-5.992,5.345h2.421v-16.2h-2.421Zm-3.967-9.459H150.7a3.821,3.821,0,0,0-2.9-1.231,5.517,5.517,0,0,0,0,11.025,3.756,3.756,0,0,0,2.9-1.253h.084v.795c0,2.109-1.128,3.236-2.945,3.236a3.051,3.051,0,0,1-2.778-1.964l-2.109.877a5.253,5.253,0,0,0,4.886,3.257c2.84,0,5.242-1.671,5.242-5.742v-9.9h-2.3Zm-2.778,7.623a3.164,3.164,0,0,1-3.069-3.321,3.189,3.189,0,0,1,3.069-3.362,3.106,3.106,0,0,1,2.943,3.362A3.081,3.081,0,0,1,148.009,26.075Zm31.6-14.366h-5.795v16.2h2.417V21.773h3.378a5.134,5.134,0,0,0,5.315-5.033A5.134,5.134,0,0,0,179.61,11.709Zm.062,7.809h-3.44V13.964h3.44a2.778,2.778,0,1,1,0,5.554Zm14.947-2.327a4.54,4.54,0,0,0-4.315,2.481l2.146.9a2.293,2.293,0,0,1,2.21-1.189,2.328,2.328,0,0,1,2.543,2.085v.166a5.35,5.35,0,0,0-2.522-.625c-2.314,0-4.67,1.272-4.67,3.649a3.744,3.744,0,0,0,4.023,3.564,3.411,3.411,0,0,0,3.086-1.585h.083v1.251h2.334V21.673C199.538,18.8,197.391,17.191,194.619,17.191Zm-.292,8.88c-.793,0-1.9-.4-1.9-1.375,0-1.251,1.377-1.73,2.564-1.73a4.308,4.308,0,0,1,2.21.542A2.932,2.932,0,0,1,194.327,26.071Zm13.716-8.526-2.772,7.025h-.083l-2.876-7.025h-2.607l4.315,9.818-2.459,5.462h2.522l6.649-15.28ZM186.259,27.912h2.419v-16.2h-2.419Z" transform="translate(1152.721 7783.841)" fill="#fff"></path></g></svg>