<?xml version="1.0" ?><svg style="enable-background:new 0 0 1700.8 1700.8;" version="1.1" viewBox="0 0 1700.8 1700.8" xml:space="preserve" xmlns="http://www.w3.org/2000/svg" xmlns:xlink="http://www.w3.org/1999/xlink"><style type="text/css">
	.st0{display:none;}
	.st1{display:inline;}
	.st2{display:inline;fill:url(#SVGID_1_);}
	.st3{display:inline;fill:url(#SVGID_2_);}
	.st4{display:inline;fill:url(#SVGID_3_);}
	.st5{display:inline;fill:url(#SVGID_4_);}
	.st6{display:inline;fill:#62348B;}
	.st7{display:inline;fill:#CE68A5;}
	.st8{display:inline;fill:#512670;}
	.st9{display:inline;fill:url(#SVGID_5_);}
	.st10{display:inline;fill:url(#SVGID_6_);}
	.st11{display:inline;fill:url(#SVGID_7_);}
	.st12{display:inline;fill:url(#SVGID_8_);}
	.st13{display:inline;fill:url(#SVGID_9_);}
	.st14{display:inline;fill:url(#SVGID_10_);}
	.st15{display:inline;fill:url(#SVGID_11_);}
	.st16{display:inline;fill:url(#SVGID_12_);}
	.st17{display:inline;fill:#621849;}
	.st18{display:inline;fill:#A9548A;}
	.st19{display:inline;fill:#F9B233;}
	.st20{display:inline;fill:url(#SVGID_13_);}
	.st21{display:inline;fill:url(#SVGID_14_);}
	.st22{display:inline;fill:url(#SVGID_15_);}
	.st23{display:inline;fill:#EF9EC4;}
	.st24{display:inline;fill:url(#SVGID_16_);}
	.st25{display:inline;fill:url(#SVGID_17_);}
	.st26{display:inline;fill:#8F386B;}
	.st27{display:inline;opacity:0.64;fill:#E5D8B1;}
	.st28{display:inline;fill:#DD6E99;}
	.st29{display:inline;fill:url(#SVGID_18_);}
	.st30{display:inline;fill:url(#SVGID_19_);}
	.st31{display:inline;fill:#70BA6F;}
	.st32{display:inline;fill:#E5E5A5;}
	.st33{display:inline;fill:url(#SVGID_20_);}
	.st34{display:inline;fill:url(#SVGID_21_);}
	.st35{display:inline;fill:url(#SVGID_22_);}
	.st36{display:inline;fill:#F4EFBE;}
	.st37{display:inline;fill:url(#SVGID_23_);}
	.st38{display:inline;fill:url(#SVGID_24_);}
	.st39{display:inline;fill:url(#SVGID_25_);}
	.st40{display:inline;fill:url(#SVGID_26_);}
	.st41{display:inline;fill:url(#SVGID_27_);}
	.st42{display:inline;fill:url(#SVGID_28_);}
	.st43{display:inline;fill:url(#SVGID_29_);}
	.st44{display:inline;fill:#6D2E48;}
	.st45{display:inline;fill:url(#SVGID_30_);}
	.st46{display:inline;fill:url(#SVGID_31_);}
	.st47{display:inline;opacity:0.64;fill:#E6332A;}
	.st48{display:inline;fill:#E8DB9E;}
	.st49{display:inline;fill:url(#SVGID_32_);}
	.st50{display:inline;fill:url(#SVGID_33_);}
	.st51{display:inline;fill:#D6D69A;}
	.st52{display:inline;fill:url(#SVGID_34_);}
	.st53{display:inline;fill:url(#SVGID_35_);}
	.st54{display:inline;opacity:0.45;fill:#29235C;}
	.st55{display:inline;opacity:0.7;fill:#662483;}
	.st56{display:inline;opacity:0.63;fill:#29235C;}
	.st57{display:inline;opacity:0.49;fill:#29235C;}
	.st58{display:inline;opacity:0.46;fill:#D60B52;}
	.st59{display:inline;fill:url(#SVGID_36_);}
	.st60{display:inline;fill:#29235C;}
	.st61{display:inline;fill:#662483;}
	.st62{display:inline;fill:url(#SVGID_37_);}
	.st63{display:inline;fill:url(#SVGID_38_);}
	.st64{display:inline;fill:#BC8262;}
	.st65{display:inline;fill:#E0BA7E;}
	.st66{fill:url(#SVGID_39_);}
	.st67{fill:url(#SVGID_40_);}
	.st68{opacity:0.45;fill:#FCEA10;}
	.st69{opacity:0.51;fill:#FFED00;}
	.st70{opacity:0.47;fill:#BE1622;}
	.st71{opacity:0.22;fill:#E94E1B;}
	.st72{opacity:0.31;fill:#D60B52;}
	.st73{opacity:0.49;fill:#F39200;}
	.st74{opacity:0.29;fill:#F9B233;}
	.st75{opacity:0.71;fill:#E94E1B;}
</style><g class="st0" id="Laag_6"><rect class="st1" height="1937.8" width="1832.4" x="-72.4" y="-45.2"/></g><g class="st0" id="Laag_1"><linearGradient gradientUnits="userSpaceOnUse" id="SVGID_1_" x1="244.2604" x2="1366.8921" y1="913.454" y2="913.454"><stop offset="0" style="stop-color:#00837D"/><stop offset="1" style="stop-color:#27276F"/></linearGradient><circle class="st2" cx="805.6" cy="913.5" r="561.3"/><radialGradient cx="850.4908" cy="1013.4227" gradientUnits="userSpaceOnUse" id="SVGID_2_" r="674.7238"><stop offset="0" style="stop-color:#B22E88"/><stop offset="1" style="stop-color:#A85FA2"/></radialGradient><path class="st3" d="M1667.7,590.9c64.1,124.1-249.7,413.8-701.1,647.1S97.4,1560,33.3,1435.9S283,1022.1,734.4,788.8   S1603.5,466.9,1667.7,590.9z"/><radialGradient cx="838.4833" cy="989.4077" gradientTransform="matrix(1 0 0 4 0 -2968.2231)" gradientUnits="userSpaceOnUse" id="SVGID_3_" r="557.57"><stop offset="0" style="stop-color:#7457A1"/><stop offset="1" style="stop-color:#5C3189"/></radialGradient><path class="st4" d="M1513.8,640.3c53,102.5-206.4,341.9-579.3,534.8s-718.3,266-771.3,163.5s206.4-341.9,579.3-534.8   S1460.8,537.8,1513.8,640.3z"/><linearGradient gradientUnits="userSpaceOnUse" id="SVGID_4_" x1="238.6175" x2="1318.3611" y1="779.8819" y2="779.8819"><stop offset="0" style="stop-color:#00A19A"/><stop offset="1" style="stop-color:#2D2E83"/></linearGradient><path class="st5" d="M1306.2,654.5C1440.2,934,428.1,1419.6,294,1140.1s-16.2-614.8,263.3-748.9S1172.1,375,1306.2,654.5z"/><circle class="st6" cx="1206" cy="294.3" r="89.6"/><circle class="st7" cx="1030.2" cy="413.7" r="73"/><circle class="st8" cx="1360.6" cy="1330.3" r="47.7"/></g><g class="st0" id="Laag_2"><linearGradient gradientUnits="userSpaceOnUse" id="SVGID_5_" x1="246.5744" x2="1359.5786" y1="912.4071" y2="912.4071"><stop offset="0" style="stop-color:#E84434"/><stop offset="1" style="stop-color:#27276F"/></linearGradient><circle class="st9" cx="803.1" cy="912.4" r="556.5"/><radialGradient cx="847.6058" cy="1011.5186" gradientUnits="userSpaceOnUse" id="SVGID_6_" r="668.9376"><stop offset="0" style="stop-color:#EFEEA4"/><stop offset="1" style="stop-color:#4D3189"/></radialGradient><path class="st10" d="M1657.8,592.7c63.6,123-247.6,410.2-695.1,641.6S101,1553.4,37.4,1430.4S285,1020.1,732.5,788.8   S1594.2,469.7,1657.8,592.7z"/><radialGradient cx="835.7013" cy="987.7095" gradientTransform="matrix(1 0 0 4 0 -2963.1284)" gradientUnits="userSpaceOnUse" id="SVGID_7_" r="552.7884"><stop offset="0" style="stop-color:#5C3189"/><stop offset="0.4632" style="stop-color:#7A3C81"/><stop offset="1" style="stop-color:#B55766"/></radialGradient><path class="st11" d="M1505.2,641.6c52.5,101.6-204.6,339-574.4,530.2s-712.1,263.7-764.7,162.1s204.6-339,574.4-530.2   S1452.7,539.9,1505.2,641.6z"/><linearGradient gradientUnits="userSpaceOnUse" id="SVGID_8_" x1="240.9799" x2="1311.4639" y1="779.9805" y2="779.9805"><stop offset="0" style="stop-color:#E07550"/><stop offset="1" style="stop-color:#2D2E83"/></linearGradient><path class="st12" d="M1299.4,655.7c132.9,277.1-870.6,758.5-1003.5,481.4s-16.1-609.5,261.1-742.5S1166.4,378.6,1299.4,655.7z"/></g><g class="st0" id="Laag_3"><linearGradient gradientTransform="matrix(-1 0 0 1 2088.9814 0)" gradientUnits="userSpaceOnUse" id="SVGID_9_" x1="627.5222" x2="1758.9282" y1="903.3625" y2="903.3625"><stop offset="0" style="stop-color:#540D3C"/><stop offset="0.2671" style="stop-color:#7A275C"/><stop offset="1" style="stop-color:#C6B784"/></linearGradient><circle class="st13" cx="895.8" cy="903.4" r="565.7"/><radialGradient cx="1238.4907" cy="1004.1127" gradientTransform="matrix(-1 0 0 1 2088.9814 0)" gradientUnits="userSpaceOnUse" id="SVGID_10_" r="679.9974"><stop offset="0" style="stop-color:#DD3F30"/><stop offset="1" style="stop-color:#8B4A7D"/></radialGradient><path class="st14" d="M26.9,578.3c-64.6,125,251.7,417,706.5,652.2s876,324.4,940.6,199.4s-251.7-417-706.5-652.2   S91.5,453.3,26.9,578.3z"/><radialGradient cx="1226.3894" cy="979.9099" gradientTransform="matrix(-1 0 0 4 2088.9814 -2939.7297)" gradientUnits="userSpaceOnUse" id="SVGID_11_" r="561.9279"><stop offset="0" style="stop-color:#DC67A3"/><stop offset="1" style="stop-color:#561535"/></radialGradient><path class="st15" d="M182,628.1C128.6,731.4,390,972.7,765.9,1167s723.9,268.1,777.3,164.8c53.4-103.3-208-344.6-583.9-538.9   S235.4,524.7,182,628.1z"/><linearGradient gradientTransform="matrix(-1 0 0 1 2088.9814 0)" gradientUnits="userSpaceOnUse" id="SVGID_12_" x1="621.8352" x2="1710.0179" y1="768.7465" y2="768.7465"><stop offset="0" style="stop-color:#6B2E5A"/><stop offset="0.3386" style="stop-color:#A43A62"/><stop offset="1" style="stop-color:#F6E834"/></linearGradient><path class="st16" d="M391.3,642.4c-135.1,281.7,885,771.1,1020.1,489.4S1427.7,512.1,1146,377S526.4,360.7,391.3,642.4z"/><circle class="st17" cx="492.2" cy="279.3" r="90.3"/><circle class="st18" cx="669.4" cy="399.7" r="73.5"/><circle class="st19" cx="336.4" cy="1323.5" r="48.1"/></g><g class="st0" id="Laag_4"><linearGradient gradientUnits="userSpaceOnUse" id="SVGID_13_" x1="54.3464" x2="1442.7031" y1="829.91" y2="829.91"><stop offset="0" style="stop-color:#E94660"/><stop offset="1" style="stop-color:#3E266F"/></linearGradient><circle class="st20" cx="748.5" cy="829.9" r="694.2"/><linearGradient gradientTransform="matrix(0.7258 0.6879 -0.6879 0.7258 697.8141 -270.6091)" gradientUnits="userSpaceOnUse" id="SVGID_14_" x1="97.3624" x2="1432.6796" y1="607.2714" y2="607.2714"><stop offset="0" style="stop-color:#EB5673"/><stop offset="1" style="stop-color:#2D2E83"/></linearGradient><path class="st21" d="M1415.7,1032.8C1298.2,1397.7-23.4,972.5,94,607.5S602.5,41.9,967.5,159.3S1533.1,667.8,1415.7,1032.8z"/><linearGradient gradientUnits="userSpaceOnUse" id="SVGID_15_" x1="1449.2047" x2="1670.8379" y1="400.3065" y2="400.3065"><stop offset="0" style="stop-color:#EB5673"/><stop offset="4.390545e-02" style="stop-color:#E75473"/><stop offset="1" style="stop-color:#E75473"/></linearGradient><circle class="st22" cx="1560" cy="400.3" r="110.8"/><circle class="st23" cx="318.3" cy="920.1" r="90.2"/><circle class="st8" cx="421.4" cy="1127.7" r="59"/></g><g class="st0" id="Laag_7"><linearGradient gradientTransform="matrix(-1 0 0 1 1732.6008 0)" gradientUnits="userSpaceOnUse" id="SVGID_16_" x1="67.6811" x2="1475.9048" y1="831.1976" y2="831.1976"><stop offset="0" style="stop-color:#8D124F"/><stop offset="0.298" style="stop-color:#4B1F53"/><stop offset="1" style="stop-color:#2B0834"/></linearGradient><circle class="st24" cx="960.8" cy="831.2" r="704.1"/><linearGradient gradientTransform="matrix(-0.7258 0.6879 0.6879 0.7258 1034.7867 -270.6091)" gradientUnits="userSpaceOnUse" id="SVGID_17_" x1="105.1762" x2="1459.5898" y1="589.9603" y2="589.9603"><stop offset="0" style="stop-color:#E9456C"/><stop offset="0.267" style="stop-color:#82224C"/><stop offset="0.583" style="stop-color:#3E082E"/><stop offset="1" style="stop-color:#2B001B"/></linearGradient><path class="st25" d="M284.1,1036.9c119.1,370.2,1459.6-61.1,1340.5-431.3C1505.6,235.5,1108.9,31.9,738.8,151   S165,666.8,284.1,1036.9z"/><circle class="st26" cx="137.7" cy="395.5" r="112.4"/><circle class="st27" cx="1397.1" cy="922.7" r="91.5"/><circle class="st28" cx="1292.7" cy="1133.2" r="59.8"/></g><g class="st0" id="Laag_8"><linearGradient gradientUnits="userSpaceOnUse" id="SVGID_18_" x1="175.8381" x2="1611.5548" y1="831.547" y2="831.547"><stop offset="0" style="stop-color:#4A906D"/><stop offset="0.6105" style="stop-color:#003D3E"/><stop offset="1" style="stop-color:#002227"/></linearGradient><circle class="st29" cx="893.7" cy="831.5" r="717.9"/><linearGradient gradientTransform="matrix(0.7258 0.6879 -0.6879 0.7258 697.8141 -270.6091)" gradientUnits="userSpaceOnUse" id="SVGID_19_" x1="180.0982" x2="1560.9661" y1="503.2552" y2="503.2552"><stop offset="0" style="stop-color:#63B32F"/><stop offset="0.7405" style="stop-color:#00424E"/><stop offset="1" style="stop-color:#003744"/></linearGradient><path class="st30" d="M1583.6,1041.3C1462.2,1418.7,95.4,979,216.9,601.6s525.8-584.9,903.2-463.5S1705,663.9,1583.6,1041.3z"/><circle class="st31" cx="448.8" cy="924.8" r="93.3"/><circle class="st32" cx="555.4" cy="1139.5" r="61"/></g><g class="st0" id="Laag_9"><linearGradient gradientUnits="userSpaceOnUse" id="SVGID_20_" x1="53.7255" x2="1427.3727" y1="843.1179" y2="843.1179"><stop offset="0" style="stop-color:#F39200"/><stop offset="0.2721" style="stop-color:#E94660"/><stop offset="1" style="stop-color:#3E266F"/></linearGradient><circle class="st33" cx="740.5" cy="843.1" r="686.8"/><linearGradient gradientTransform="matrix(0.9008 0.4342 -0.4342 0.9008 312.7595 -218.0983)" gradientUnits="userSpaceOnUse" id="SVGID_21_" x1="159.1439" x2="1480.3134" y1="626.5814" y2="626.5814"><stop offset="0" style="stop-color:#FCEA10"/><stop offset="0.292" style="stop-color:#EB5673"/><stop offset="1" style="stop-color:#2D2E83"/></linearGradient><path class="st34" d="M1427.4,844.4c-0.7,379.3-1374.3,376.8-1373.6-2.5s308.8-686.3,688.1-685.6   C1121.1,157,1428.1,465.1,1427.4,844.4z"/><linearGradient gradientUnits="userSpaceOnUse" id="SVGID_22_" x1="905.148" x2="1124.433" y1="1113.7836" y2="1113.7836"><stop offset="0" style="stop-color:#EB5673"/><stop offset="4.390545e-02" style="stop-color:#E75473"/><stop offset="1" style="stop-color:#E75473"/></linearGradient><circle class="st35" cx="1014.8" cy="1113.8" r="109.6"/><circle class="st36" cx="1516.6" cy="1134.2" r="89.3"/><linearGradient gradientUnits="userSpaceOnUse" id="SVGID_23_" x1="905.148" x2="1647.0646" y1="527.2524" y2="527.2524"><stop offset="0" style="stop-color:#F39C9F"/><stop offset="0.1412" style="stop-color:#C67994"/><stop offset="0.3029" style="stop-color:#9A5A88"/><stop offset="0.4617" style="stop-color:#78447E"/><stop offset="0.614" style="stop-color:#5D3577"/><stop offset="0.7579" style="stop-color:#4B2C72"/><stop offset="0.8902" style="stop-color:#412870"/><stop offset="1" style="stop-color:#3E266F"/></linearGradient><circle class="st37" cx="1276.1" cy="527.3" r="371"/><linearGradient gradientTransform="matrix(0.9008 0.4342 -0.4342 0.9008 312.7595 -218.0983)" gradientUnits="userSpaceOnUse" id="SVGID_24_" x1="820.3813" x2="1533.9542" y1="175.5741" y2="175.5741"><stop offset="0" style="stop-color:#DE99C3"/><stop offset="1" style="stop-color:#2D2E83"/></linearGradient><path class="st38" d="M1647.1,527.9c-0.4,204.9-742.3,203.5-741.9-1.4s166.8-370.7,371.6-370.3   C1481.7,156.7,1647.4,323.1,1647.1,527.9z"/><circle class="st8" cx="1124.4" cy="872.5" r="58.4"/></g><g class="st0" id="Laag_10"><linearGradient gradientUnits="userSpaceOnUse" id="SVGID_25_" x1="53.7257" x2="1427.3724" y1="843.118" y2="843.118"><stop offset="0" style="stop-color:#0B1C36"/><stop offset="0.5144" style="stop-color:#085267"/><stop offset="1" style="stop-color:#008289"/></linearGradient><circle class="st39" cx="740.5" cy="843.1" r="686.8"/><linearGradient gradientTransform="matrix(0.9008 0.4342 -0.4342 0.9008 312.7595 -218.0983)" gradientUnits="userSpaceOnUse" id="SVGID_26_" x1="159.1442" x2="1480.3134" y1="626.5815" y2="626.5815"><stop offset="9.163743e-02" style="stop-color:#1D314F"/><stop offset="0.6632" style="stop-color:#005570"/><stop offset="1" style="stop-color:#00AFD0"/></linearGradient><path class="st40" d="M1427.4,844.4c-0.7,379.3-1374.3,376.8-1373.6-2.5s308.8-686.3,688.1-685.6   C1121.1,157,1428.1,465.1,1427.4,844.4z"/><linearGradient gradientUnits="userSpaceOnUse" id="SVGID_27_" x1="905.1479" x2="1124.4329" y1="1113.7837" y2="1113.7837"><stop offset="0" style="stop-color:#EB5673"/><stop offset="4.390545e-02" style="stop-color:#E75473"/><stop offset="1" style="stop-color:#E75473"/></linearGradient><circle class="st41" cx="1014.8" cy="1113.8" r="109.6"/><linearGradient gradientUnits="userSpaceOnUse" id="SVGID_28_" x1="905.1479" x2="1647.0643" y1="527.2526" y2="527.2526"><stop offset="0" style="stop-color:#E83973"/><stop offset="0.1412" style="stop-color:#C13573"/><stop offset="0.3029" style="stop-color:#993072"/><stop offset="0.4617" style="stop-color:#782D72"/><stop offset="0.614" style="stop-color:#5E2A71"/><stop offset="0.7579" style="stop-color:#4C2870"/><stop offset="0.8902" style="stop-color:#41276F"/><stop offset="1" style="stop-color:#3E266F"/></linearGradient><circle class="st42" cx="1276.1" cy="527.3" r="371"/><linearGradient gradientTransform="matrix(0.9008 0.4342 -0.4342 0.9008 312.7595 -218.0983)" gradientUnits="userSpaceOnUse" id="SVGID_29_" x1="820.3814" x2="1533.9542" y1="175.5744" y2="175.5744"><stop offset="0" style="stop-color:#882954"/><stop offset="1" style="stop-color:#2D2E83"/></linearGradient><path class="st43" d="M1647.1,527.9c-0.4,204.9-742.3,203.5-741.9-1.4c0.4-204.9,166.8-370.7,371.6-370.3   S1647.4,323.1,1647.1,527.9z"/><circle class="st44" cx="815.9" cy="872.5" r="58.4"/></g><g class="st0" id="Laag_11"><linearGradient gradientTransform="matrix(-1 0 0 1 1307.6416 0)" gradientUnits="userSpaceOnUse" id="SVGID_30_" x1="-333.9417" x2="1030.2545" y1="843.1182" y2="843.1182"><stop offset="0" style="stop-color:#C0D076"/><stop offset="0.383" style="stop-color:#009477"/><stop offset="0.9982" style="stop-color:#101C21"/></linearGradient><circle class="st45" cx="959.5" cy="843.1" r="682.1"/><linearGradient gradientTransform="matrix(-0.9008 0.4342 0.4342 0.9008 994.8821 -218.0983)" gradientUnits="userSpaceOnUse" id="SVGID_31_" x1="-189.606" x2="1122.4736" y1="797.9409" y2="797.9409"><stop offset="0" style="stop-color:#B8D590"/><stop offset="0.4607" style="stop-color:#4DB38A"/><stop offset="1" style="stop-color:#29480B"/></linearGradient><path class="st46" d="M277.4,844.4c0.7,376.7,1364.9,374.2,1364.2-2.5c-0.7-376.7-306.6-681.5-683.4-680.8   C581.5,161.7,276.7,467.7,277.4,844.4z"/><circle class="st47" cx="687.1" cy="1111.9" r="108.9"/><circle class="st48" cx="188.7" cy="1132.2" r="88.6"/><linearGradient gradientTransform="matrix(-1 0 0 1 1307.6416 0)" gradientUnits="userSpaceOnUse" id="SVGID_32_" x1="511.6229" x2="1248.4349" y1="529.426" y2="529.426"><stop offset="0" style="stop-color:#E83E2D"/><stop offset="7.980782e-02" style="stop-color:#D03939"/><stop offset="0.2532" style="stop-color:#A52F46"/><stop offset="0.4233" style="stop-color:#852449"/><stop offset="0.5864" style="stop-color:#6D1B47"/><stop offset="0.7406" style="stop-color:#5D1544"/><stop offset="0.8823" style="stop-color:#541041"/><stop offset="1" style="stop-color:#500F3F"/></linearGradient><circle class="st49" cx="427.6" cy="529.4" r="368.4"/><linearGradient gradientTransform="matrix(-0.9008 0.4342 0.4342 0.9008 994.8821 -218.0983)" gradientUnits="userSpaceOnUse" id="SVGID_33_" x1="467.0819" x2="1175.7454" y1="350.0366" y2="350.0366"><stop offset="0" style="stop-color:#D7524E"/><stop offset="1" style="stop-color:#531B3D"/></linearGradient><path class="st50" d="M59.2,530.1c0.4,203.5,737.2,202.1,736.8-1.4C795.6,325.3,630.4,160.6,426.9,161S58.8,326.6,59.2,530.1z"/><circle class="st51" cx="578.2" cy="872.3" r="58"/></g><g class="st0" id="Laag_12"><linearGradient gradientTransform="matrix(-1 0 0 1 1853.3435 0)" gradientUnits="userSpaceOnUse" id="SVGID_34_" x1="271.0397" x2="1614.3342" y1="824.2206" y2="824.2206"><stop offset="0" style="stop-color:#291447"/><stop offset="1" style="stop-color:#AA1160"/></linearGradient><circle class="st52" cx="910.7" cy="824.2" r="671.6"/><linearGradient gradientTransform="matrix(-0.7258 0.6879 0.6879 0.7258 1155.5295 -270.6091)" gradientUnits="userSpaceOnUse" id="SVGID_35_" x1="256.9808" x2="1548.9573" y1="474.6638" y2="474.6638"><stop offset="0" style="stop-color:#2D2E83"/><stop offset="1" style="stop-color:#67023B"/></linearGradient><path class="st53" d="M265.2,1020.5c113.6,353.1,1392.3-58.3,1278.7-411.4c-113.6-353.1-492-547.3-845.1-433.7   S151.6,667.4,265.2,1020.5z"/><circle class="st54" cx="1223.7" cy="589.2" r="107.2"/><circle class="st55" cx="1302.1" cy="1126.8" r="87.3"/><circle class="st56" cx="1059.4" cy="824.2" r="57.1"/><circle class="st57" cx="637.8" cy="1144.6" r="110.4"/><circle class="st58" cx="470.4" cy="532.1" r="57.1"/><linearGradient gradientTransform="matrix(-1 0 0 1 1853.3435 0)" gradientUnits="userSpaceOnUse" id="SVGID_36_" x1="1510.8816" x2="1717.787" y1="313.5459" y2="313.5459"><stop offset="0" style="stop-color:#5D1A56"/><stop offset="1" style="stop-color:#631A58"/></linearGradient><circle class="st59" cx="239" cy="313.5" r="103.5"/><circle class="st60" cx="1592.4" cy="1266.1" r="67.5"/><circle class="st61" cx="119.8" cy="481.9" r="67.5"/></g><g class="st0" id="Laag_13"><linearGradient gradientTransform="matrix(1 0 0 1 -765.7311 0)" gradientUnits="userSpaceOnUse" id="SVGID_37_" x1="888.9316" x2="2144.5684" y1="823.493" y2="823.493"><stop offset="0" style="stop-color:#18173B"/><stop offset="1" style="stop-color:#539FC8"/></linearGradient><circle class="st62" cx="751" cy="823.5" r="627.8"/><linearGradient gradientTransform="matrix(0.7258 0.6879 -0.6879 0.7258 -67.917 -270.6091)" gradientUnits="userSpaceOnUse" id="SVGID_38_" x1="717.1195" x2="1924.7869" y1="89.134" y2="89.134"><stop offset="0" style="stop-color:#012F4E"/><stop offset="0.3282" style="stop-color:#004963"/><stop offset="0.6138" style="stop-color:#005D79"/><stop offset="1" style="stop-color:#60C6EF"/></linearGradient><path class="st63" d="M1354.4,1006.9C1248.2,1337,52.9,952.4,159.1,622.4S618.9,110.8,949,217S1460.6,676.9,1354.4,1006.9z"/><circle class="st54" cx="439.8" cy="563.5" r="100.2"/><circle class="st55" cx="385.1" cy="1106.3" r="81.6"/><circle class="st56" cx="564.5" cy="770.1" r="53.3"/><circle class="st57" cx="1006.1" cy="1123" r="103.2"/><circle class="st58" cx="1162.6" cy="550.4" r="53.3"/><circle class="st64" cx="1553.4" cy="770.1" r="96.7"/><circle class="st65" cx="113.8" cy="1236.6" r="63.1"/><circle class="st61" cx="1447.4" cy="550.4" r="63.1"/></g><g id="Laag_14"><linearGradient gradientTransform="matrix(-1 0 0 1 1853.3435 0)" gradientUnits="userSpaceOnUse" id="SVGID_39_" x1="285.7481" x2="1713.4631" y1="855.5152" y2="855.5152"><stop offset="0" style="stop-color:#AA1160"/><stop offset="0.1638" style="stop-color:#B95121"/><stop offset="1" style="stop-color:#F8ED6E"/></linearGradient><circle class="st66" cx="853.7" cy="855.5" r="713.9"/><linearGradient gradientTransform="matrix(-0.7258 0.6879 0.6879 0.7258 1155.5295 -270.6091)" gradientUnits="userSpaceOnUse" id="SVGID_40_" x1="277.4705" x2="1650.6423" y1="448.7009" y2="448.7009"><stop offset="0" style="stop-color:#CE6176"/><stop offset="0.1915" style="stop-color:#CF6E2F"/><stop offset="1" style="stop-color:#F3EFA7"/></linearGradient><path class="st67" d="M167.7,1064.1c120.8,375.3,1479.9-62,1359.1-437.3C1406,251.5,1003.9,45.2,628.6,165.9   S46.9,688.8,167.7,1064.1z"/><circle class="st68" cx="1186.4" cy="605.7" r="114"/><circle class="st69" cx="1269.8" cy="1177.1" r="92.8"/><circle class="st70" cx="1011.8" cy="855.5" r="60.7"/><circle class="st71" cx="563.7" cy="1196" r="117.3"/><circle class="st72" cx="385.8" cy="545" r="60.7"/><circle class="st73" cx="376.8" cy="806.8" r="110"/><circle class="st74" cx="833.8" cy="483.9" r="71.8"/><circle class="st75" cx="757.7" cy="1325.2" r="71.8"/></g></svg>