<?xml version="1.0" ?><!DOCTYPE svg  PUBLIC '-//W3C//DTD SVG 1.1//EN'  'http://www.w3.org/Graphics/SVG/1.1/DTD/svg11.dtd'><svg enable-background="new 0 0 512 512" id="Layer_1" version="1.1" viewBox="0 0 512 512" xml:space="preserve" xmlns="http://www.w3.org/2000/svg" xmlns:xlink="http://www.w3.org/1999/xlink"><g><circle cx="256" cy="256" fill="#FFCA67" r="256"/><polygon fill="#525252" points="255.8,255.7 255.8,256.3 256.2,255.9  "/><g><path d="M511.6,248.4c-1.8-4.5-3.7-8.8-3.7-8.8s-6-8-10-10c-4-2-7-7-14-11c-7-4-10-6-16-6c-6,0-12-8-19-12    c-7-4-8-2-8-2s8,12,8,15c0,3,9,8,18,6c0,0,6,11,9,14c3,3-1,6-7,10c-6,4-5,3-8,6c-3,3-13,8-16,10c-3,2-15,8-21,2c-2.9-2.9-2-9-4-13    c-2-4-23-35-33-48.9c-1.7-2.5-6-10-9-12c-3-2,7-2,7-2s0-7-1-12c-1-5,1-12,1-12s-10,6-13,8c-3,2-6-4-10-9c-4-5-8-11-9-16    c-1-5,5-7,5-7l9-5c0,0,11-2,18-1c7,1,18,2,18,2s3-7-1-10c-4-3-13-8-17-7c-4,1,2-5,7-9l-11.1-2c0,0-10.1,5-13.1,6    c-3,1-8.2,3-12.2,8c-4,5,1.6,12-2.4,14c-4,2-6.7,3-9.7,4c-3,1-12.5,0-12.5,0c-10.3,0-3.7,9.4-1,12.8l-8-9.7l-5.9-14    c0,0-8.5-6-12.5-8c-4-2-16.3-9-16.3-9l0.9,9l11.6,11.7l1,0.3l6,8l-13.3,1v-7.9c-12.5-3-9.3-6.1-10.7-7.1c-3-2-9.9-7-9.9-7    s-11.8,2-14.8,3c-3,1-3.9,4-9.8,6c-6,2-8.7,5-10.7,8c-2,3-8.5,12-12.5,16c-4,4-11.4,3-14.4,3c-3,0-17.4-4-17.4-4v-16.9    c0,0,1.9-9.5,1-12.5l8.7-1.5l14.6-3l4.3-3l6.1-8c0,0-6.9-5-1.9-12c2.4-3.4,11-4,15-7c4-3,10-5,10-5s7-6,14-13c0,0,5-3,11-5    c0,0,17,15,20,15c3,0,14-7,14-7s3-9,2-12c-1-3-6-13-6-13s-3,5-6,9c-3,4-5,9-5,9s-14-1-15-4c-1-3-3-7.9-4-10.9c-1-3-9-2.9-14.9-0.9    c-6,2,1-10.8,1-10.8s6-7.5,10-7.5c4,0,13-5.1,17-6.1c4-1,16-5.6,21-5.6c5,0,11,2.2,14,2.2c3,0,15,0,15,0l13.6-1.1    C322.9,6.9,290.3,0,256,0c-44,0-85.4,11.1-121.5,30.7c0,0-0.1,0.1-0.1,0.1c-13,14-10,10-13,14c-3,4-2,5-9,10c-7,5-10,11-10,11    l-11,4l-7.1-3.2c-15.2,13.8-29,29.2-40.5,46.3c0.3,0.7,0.3,1.1,0.7,1.9c7,13,1,19,1,19s-17,12-20,14c-0.6,0.4-1.3,1.1-2.1,2    c-1.2,2.6-2.5,5.2-3.7,7.9c4.9-2.9,10.7-5.7,5.8,2.1c-4.5,7.2-12,18.1-14.9,24C3.8,206.6,0,230.8,0,256c0,23.1,3.3,45.4,9.1,66.7    c1.5,1,3.1,1.8,5.4,2.7c5,2,7,5,13,8c6,3,4,1,12,10c8,9,7,9,9,14c2,5,5,10,7,13c2,3,8,5,11,7c3,2,8,4,11,4c3,0,12,9,17,10    c5,1,5,11,5,11l-5,14l-4,15l4,12c0,0-4,3.2-7.6,4.4C131.9,487.6,191.1,512,256,512c141.4,0,256-114.6,256-256    C512,253.4,511.7,250.9,511.6,248.4z M196.3,69.7l9.6,3.9V55.7l9.2-5l7.6,11l11.8,13l-7.8,6l-20.8,4V74.1l-9.6,10.6l-4-6    L196.3,69.7z M439,389.4c-1,4-3,11-4,15c-1,4-6,12-9,14c-3,2-8,8-11,9c-3,1-5-7-4-11c1-4,6-15,6-15s1-6,2-10c1-4,13-9,13-9l8-15    c0,0,1,4,1,7C441,377.4,440,385.4,439,389.4z M442,295.5c-2,3-8,11-11,15c-3,4-7,10-13,15c-6,5-6,10-9,14c-3,4-7,13-7,13    s2,20,3,24c1,4-7,15-7,15l-9,9l-12,16l1,15c0,0-9.1,7-14.1,11c-5,4-4.2,7-8.2,11c-4,4-19.6,11-23.6,12c-4,1-26,4-26,4v-9l-0.5-10    c0,0-3-12-6-16c-3-4-1.7-10-6.7-15c-5-5-6.8-9-7.8-12c-1-3,1.1-12,1.1-12s4-11,6-15c2-4,0-10-2-14c-2-4-3-14-3-17c0-3-8-8-11-11    c-3-3-2-7-2-11c0-4-3-13-2-20c1-7-9-2-15,0c-6,2-10-2-10-8c0-6-11-1-18,3c-7,4-15,4-23,7c-8,3-11.9-3-11.9-3s-7-6-12-9    c-5-3-10-9-14-14c-4-5-14-20-15-26c-1-6,0-10,0-17s0-11,1-16c1-5,4-11,7-16c3-5,14-11,17-13c3-2,10-8,10-12c0-4,4-6,6-10    c2-4,9-14,18-10c0,0,8-1,11-2c3-1,11-4,14.9-6c4-2,13.9-2.9,13.9-2.9s7.9,3.1,10.9,3.1c3,0,12.7-1.7,12.7-1.7s4.5,14.5,4.5,17.5    c0,3,3,6,8,8c4.9,2,27.9,7,37.9-1c2.3-1.8,10,3,10,3s25,5,29,8c4,3,11,5,13,8c2,3,9,12,10,15c1,3,6,14,7,18c1,4,4,14,7,19    c3,5,20,27,26,37l18-3C446.1,283.5,444,292.5,442,295.5z" fill="#239ED9"/><path d="M387.2,36.5c-4.7-2.8-9.5-5.6-14.4-8.1c-0.2,0.3-0.2,0.5-0.6,0.8c0,0,7,4.3,10,7.3    C383.3,37.6,385.1,37.2,387.2,36.5z" fill="#239ED9"/></g><path d="M41,256C41,121.5,144.7,11.5,276.5,1c-6.8-0.5-13.6-1-20.5-1C114.6,0,0,114.6,0,256s114.6,256,256,256   c6.9,0,13.7-0.5,20.5-1C144.7,500.5,41,390.5,41,256z" opacity="0.26"/></g></svg>