<?xml version="1.0" ?><svg style="enable-background:new 0 0 1700.8 1700.8;" version="1.1" viewBox="0 0 1700.8 1700.8" xml:space="preserve" xmlns="http://www.w3.org/2000/svg" xmlns:xlink="http://www.w3.org/1999/xlink"><style type="text/css">
	.st0{display:none;}
	.st1{display:inline;}
	.st2{display:inline;fill:url(#SVGID_1_);}
	.st3{display:inline;fill:url(#SVGID_2_);}
	.st4{display:inline;fill:url(#SVGID_3_);}
	.st5{display:inline;fill:url(#SVGID_4_);}
	.st6{display:inline;fill:#62348B;}
	.st7{display:inline;fill:#CE68A5;}
	.st8{display:inline;fill:#512670;}
	.st9{fill:url(#SVGID_5_);}
	.st10{fill:url(#SVGID_6_);}
	.st11{fill:url(#SVGID_7_);}
	.st12{fill:url(#SVGID_8_);}
	.st13{display:inline;fill:url(#SVGID_9_);}
	.st14{display:inline;fill:url(#SVGID_10_);}
	.st15{display:inline;fill:url(#SVGID_11_);}
	.st16{display:inline;fill:url(#SVGID_12_);}
	.st17{display:inline;fill:#621849;}
	.st18{display:inline;fill:#A9548A;}
	.st19{display:inline;fill:#F9B233;}
	.st20{display:inline;fill:url(#SVGID_13_);}
	.st21{display:inline;fill:url(#SVGID_14_);}
	.st22{display:inline;fill:url(#SVGID_15_);}
	.st23{display:inline;fill:#EF9EC4;}
	.st24{display:inline;fill:url(#SVGID_16_);}
	.st25{display:inline;fill:url(#SVGID_17_);}
	.st26{display:inline;fill:#8F386B;}
	.st27{display:inline;opacity:0.64;fill:#E5D8B1;}
	.st28{display:inline;fill:#DD6E99;}
	.st29{display:inline;fill:url(#SVGID_18_);}
	.st30{display:inline;fill:url(#SVGID_19_);}
	.st31{display:inline;fill:#70BA6F;}
	.st32{display:inline;fill:#E5E5A5;}
</style><g class="st0" id="Laag_6"><rect class="st1" height="1937.8" width="1832.4" x="-72.4" y="-45.2"/></g><g class="st0" id="Laag_1"><linearGradient gradientUnits="userSpaceOnUse" id="SVGID_1_" x1="244.2604" x2="1366.8921" y1="913.454" y2="913.454"><stop offset="0" style="stop-color:#00837D"/><stop offset="1" style="stop-color:#27276F"/></linearGradient><circle class="st2" cx="805.6" cy="913.5" r="561.3"/><radialGradient cx="850.4908" cy="1013.4227" gradientUnits="userSpaceOnUse" id="SVGID_2_" r="674.7238"><stop offset="0" style="stop-color:#B22E88"/><stop offset="1" style="stop-color:#A85FA2"/></radialGradient><path class="st3" d="M1667.7,590.9c64.1,124.1-249.7,413.8-701.1,647.1S97.4,1560,33.3,1435.9S283,1022.1,734.4,788.8   S1603.5,466.9,1667.7,590.9z"/><radialGradient cx="838.4833" cy="989.4077" gradientTransform="matrix(1 0 0 4 0 -2968.2231)" gradientUnits="userSpaceOnUse" id="SVGID_3_" r="557.57"><stop offset="0" style="stop-color:#7457A1"/><stop offset="1" style="stop-color:#5C3189"/></radialGradient><path class="st4" d="M1513.8,640.3c53,102.5-206.4,341.9-579.3,534.8s-718.3,266-771.3,163.5s206.4-341.9,579.3-534.8   S1460.8,537.8,1513.8,640.3z"/><linearGradient gradientUnits="userSpaceOnUse" id="SVGID_4_" x1="238.6175" x2="1318.3611" y1="779.8819" y2="779.8819"><stop offset="0" style="stop-color:#00A19A"/><stop offset="1" style="stop-color:#2D2E83"/></linearGradient><path class="st5" d="M1306.2,654.5C1440.2,934,428.1,1419.6,294,1140.1s-16.2-614.8,263.3-748.9S1172.1,375,1306.2,654.5z"/><circle class="st6" cx="1206" cy="294.3" r="89.6"/><circle class="st7" cx="1030.2" cy="413.7" r="73"/><circle class="st8" cx="1360.6" cy="1330.3" r="47.7"/></g><g id="Laag_2"><linearGradient gradientUnits="userSpaceOnUse" id="SVGID_5_" x1="246.5744" x2="1359.5786" y1="912.4071" y2="912.4071"><stop offset="0" style="stop-color:#E84434"/><stop offset="1" style="stop-color:#27276F"/></linearGradient><circle class="st9" cx="803.1" cy="912.4" r="556.5"/><radialGradient cx="847.6058" cy="1011.5186" gradientUnits="userSpaceOnUse" id="SVGID_6_" r="668.9376"><stop offset="0" style="stop-color:#EFEEA4"/><stop offset="1" style="stop-color:#4D3189"/></radialGradient><path class="st10" d="M1657.8,592.7c63.6,123-247.6,410.2-695.1,641.6S101,1553.4,37.4,1430.4S285,1020.1,732.5,788.8   S1594.2,469.7,1657.8,592.7z"/><radialGradient cx="835.7013" cy="987.7095" gradientTransform="matrix(1 0 0 4 0 -2963.1284)" gradientUnits="userSpaceOnUse" id="SVGID_7_" r="552.7884"><stop offset="0" style="stop-color:#5C3189"/><stop offset="0.4632" style="stop-color:#7A3C81"/><stop offset="1" style="stop-color:#B55766"/></radialGradient><path class="st11" d="M1505.2,641.6c52.5,101.6-204.6,339-574.4,530.2s-712.1,263.7-764.7,162.1s204.6-339,574.4-530.2   S1452.7,539.9,1505.2,641.6z"/><linearGradient gradientUnits="userSpaceOnUse" id="SVGID_8_" x1="240.9799" x2="1311.4639" y1="779.9805" y2="779.9805"><stop offset="0" style="stop-color:#E07550"/><stop offset="1" style="stop-color:#2D2E83"/></linearGradient><path class="st12" d="M1299.4,655.7c132.9,277.1-870.6,758.5-1003.5,481.4s-16.1-609.5,261.1-742.5S1166.4,378.6,1299.4,655.7z"/></g><g class="st0" id="Laag_3"><linearGradient gradientTransform="matrix(-1 0 0 1 2088.9814 0)" gradientUnits="userSpaceOnUse" id="SVGID_9_" x1="627.5222" x2="1758.9282" y1="903.3625" y2="903.3625"><stop offset="0" style="stop-color:#540D3C"/><stop offset="0.2671" style="stop-color:#7A275C"/><stop offset="1" style="stop-color:#C6B784"/></linearGradient><circle class="st13" cx="895.8" cy="903.4" r="565.7"/><radialGradient cx="1238.4907" cy="1004.1127" gradientTransform="matrix(-1 0 0 1 2088.9814 0)" gradientUnits="userSpaceOnUse" id="SVGID_10_" r="679.9974"><stop offset="0" style="stop-color:#DD3F30"/><stop offset="1" style="stop-color:#8B4A7D"/></radialGradient><path class="st14" d="M26.9,578.3c-64.6,125,251.7,417,706.5,652.2s876,324.4,940.6,199.4s-251.7-417-706.5-652.2   S91.5,453.3,26.9,578.3z"/><radialGradient cx="1226.3894" cy="979.9099" gradientTransform="matrix(-1 0 0 4 2088.9814 -2939.7297)" gradientUnits="userSpaceOnUse" id="SVGID_11_" r="561.9279"><stop offset="0" style="stop-color:#DC67A3"/><stop offset="1" style="stop-color:#561535"/></radialGradient><path class="st15" d="M182,628.1C128.6,731.4,390,972.7,765.9,1167s723.9,268.1,777.3,164.8c53.4-103.3-208-344.6-583.9-538.9   S235.4,524.7,182,628.1z"/><linearGradient gradientTransform="matrix(-1 0 0 1 2088.9814 0)" gradientUnits="userSpaceOnUse" id="SVGID_12_" x1="621.8352" x2="1710.0179" y1="768.7465" y2="768.7465"><stop offset="0" style="stop-color:#6B2E5A"/><stop offset="0.3386" style="stop-color:#A43A62"/><stop offset="1" style="stop-color:#F6E834"/></linearGradient><path class="st16" d="M391.3,642.4c-135.1,281.7,885,771.1,1020.1,489.4S1427.7,512.1,1146,377S526.4,360.7,391.3,642.4z"/><circle class="st17" cx="492.2" cy="279.3" r="90.3"/><circle class="st18" cx="669.4" cy="399.7" r="73.5"/><circle class="st19" cx="336.4" cy="1323.5" r="48.1"/></g><g class="st0" id="Laag_4"><linearGradient gradientUnits="userSpaceOnUse" id="SVGID_13_" x1="54.3464" x2="1442.7031" y1="829.91" y2="829.91"><stop offset="0" style="stop-color:#E94660"/><stop offset="1" style="stop-color:#3E266F"/></linearGradient><circle class="st20" cx="748.5" cy="829.9" r="694.2"/><linearGradient gradientTransform="matrix(0.7258 0.6879 -0.6879 0.7258 697.8141 -270.6091)" gradientUnits="userSpaceOnUse" id="SVGID_14_" x1="97.3624" x2="1432.6796" y1="607.2714" y2="607.2714"><stop offset="0" style="stop-color:#EB5673"/><stop offset="1" style="stop-color:#2D2E83"/></linearGradient><path class="st21" d="M1415.7,1032.8C1298.2,1397.7-23.4,972.5,94,607.5S602.5,41.9,967.5,159.3S1533.1,667.8,1415.7,1032.8z"/><linearGradient gradientUnits="userSpaceOnUse" id="SVGID_15_" x1="1449.2047" x2="1670.8379" y1="400.3065" y2="400.3065"><stop offset="0" style="stop-color:#EB5673"/><stop offset="4.390545e-02" style="stop-color:#E75473"/><stop offset="1" style="stop-color:#E75473"/></linearGradient><circle class="st22" cx="1560" cy="400.3" r="110.8"/><circle class="st23" cx="318.3" cy="920.1" r="90.2"/><circle class="st8" cx="421.4" cy="1127.7" r="59"/></g><g class="st0" id="Laag_7"><linearGradient gradientTransform="matrix(-1 0 0 1 1732.6008 0)" gradientUnits="userSpaceOnUse" id="SVGID_16_" x1="67.6811" x2="1475.9048" y1="831.1976" y2="831.1976"><stop offset="0" style="stop-color:#8D124F"/><stop offset="0.298" style="stop-color:#4B1F53"/><stop offset="1" style="stop-color:#2B0834"/></linearGradient><circle class="st24" cx="960.8" cy="831.2" r="704.1"/><linearGradient gradientTransform="matrix(-0.7258 0.6879 0.6879 0.7258 1034.7867 -270.6091)" gradientUnits="userSpaceOnUse" id="SVGID_17_" x1="105.1762" x2="1459.5898" y1="589.9603" y2="589.9603"><stop offset="0" style="stop-color:#E9456C"/><stop offset="0.267" style="stop-color:#82224C"/><stop offset="0.583" style="stop-color:#3E082E"/><stop offset="1" style="stop-color:#2B001B"/></linearGradient><path class="st25" d="M284.1,1036.9c119.1,370.2,1459.6-61.1,1340.5-431.3C1505.6,235.5,1108.9,31.9,738.8,151   S165,666.8,284.1,1036.9z"/><circle class="st26" cx="137.7" cy="395.5" r="112.4"/><circle class="st27" cx="1397.1" cy="922.7" r="91.5"/><circle class="st28" cx="1292.7" cy="1133.2" r="59.8"/></g><g class="st0" id="Laag_8"><linearGradient gradientUnits="userSpaceOnUse" id="SVGID_18_" x1="175.8381" x2="1611.5548" y1="831.547" y2="831.547"><stop offset="0" style="stop-color:#4A906D"/><stop offset="0.6105" style="stop-color:#003D3E"/><stop offset="1" style="stop-color:#002227"/></linearGradient><circle class="st29" cx="893.7" cy="831.5" r="717.9"/><linearGradient gradientTransform="matrix(0.7258 0.6879 -0.6879 0.7258 697.8141 -270.6091)" gradientUnits="userSpaceOnUse" id="SVGID_19_" x1="180.0982" x2="1560.9661" y1="503.2552" y2="503.2552"><stop offset="0" style="stop-color:#63B32F"/><stop offset="0.7405" style="stop-color:#00424E"/><stop offset="1" style="stop-color:#003744"/></linearGradient><path class="st30" d="M1583.6,1041.3C1462.2,1418.7,95.4,979,216.9,601.6s525.8-584.9,903.2-463.5S1705,663.9,1583.6,1041.3z"/><circle class="st31" cx="448.8" cy="924.8" r="93.3"/><circle class="st32" cx="555.4" cy="1139.5" r="61"/></g></svg>