<?xml version="1.0" ?><svg id="Laag_1" style="enable-background:new 0 0 1700.8 1700.8;" version="1.1" viewBox="0 0 1700.8 1700.8" xml:space="preserve" xmlns="http://www.w3.org/2000/svg" xmlns:xlink="http://www.w3.org/1999/xlink"><style type="text/css">
	.st0{fill:url(#SVGID_1_);}
	.st1{fill:url(#SVGID_2_);}
	.st2{fill:url(#SVGID_3_);}
	.st3{fill:url(#SVGID_4_);}
	.st4{fill:#62348B;}
	.st5{fill:#CE68A5;}
	.st6{fill:#512670;}
</style><linearGradient gradientUnits="userSpaceOnUse" id="SVGID_1_" x1="244.2604" x2="1366.8921" y1="913.454" y2="913.454"><stop offset="0" style="stop-color:#00837D"/><stop offset="1" style="stop-color:#27276F"/></linearGradient><circle class="st0" cx="805.6" cy="913.5" r="561.3"/><radialGradient cx="850.4908" cy="1013.4227" gradientUnits="userSpaceOnUse" id="SVGID_2_" r="674.7238"><stop offset="0" style="stop-color:#B22E88"/><stop offset="1" style="stop-color:#A85FA2"/></radialGradient><path class="st1" d="M1667.7,590.9c64.1,124.1-249.7,413.8-701.1,647.1S97.4,1560,33.3,1435.9S283,1022.1,734.4,788.8  S1603.5,466.9,1667.7,590.9z"/><radialGradient cx="838.4833" cy="989.4077" gradientTransform="matrix(1 0 0 4 0 -2968.2231)" gradientUnits="userSpaceOnUse" id="SVGID_3_" r="557.57"><stop offset="0" style="stop-color:#7457A1"/><stop offset="1" style="stop-color:#5C3189"/></radialGradient><path class="st2" d="M1513.8,640.3c53,102.5-206.4,341.9-579.3,534.8s-718.3,266-771.3,163.5s206.4-341.9,579.3-534.8  S1460.8,537.8,1513.8,640.3z"/><linearGradient gradientUnits="userSpaceOnUse" id="SVGID_4_" x1="238.6175" x2="1318.3611" y1="779.8819" y2="779.8819"><stop offset="0" style="stop-color:#00A19A"/><stop offset="1" style="stop-color:#2D2E83"/></linearGradient><path class="st3" d="M1306.2,654.5C1440.2,934,428.1,1419.6,294,1140.1s-16.2-614.8,263.3-748.9S1172.1,375,1306.2,654.5z"/><circle class="st4" cx="1206" cy="294.3" r="89.6"/><circle class="st5" cx="1030.2" cy="413.7" r="73"/><circle class="st6" cx="1360.6" cy="1330.3" r="47.7"/></svg>